<?xml version="1.0" encoding="UTF-8" standalone="no"?><!DOCTYPE svg  PUBLIC '-//W3C//DTD SVG 1.1//EN'  'http://www.w3.org/Graphics/SVG/1.1/DTD/svg11.dtd'><svg viewBox="0 0 64 42.67" xmlns="http://www.w3.org/2000/svg" xmlns:xlink="http://www.w3.org/1999/xlink"><style>:root>svg{display:none}:root>svg:target{display:block}</style><svg viewBox="0 0 64 42.67" id="btn" xmlns="http://www.w3.org/2000/svg"><defs><style>.acls-1{fill:#35353d}</style></defs><g id="aLayer_2" data-name="Layer 2"><path class="acls-1" d="M63.22 19.57L44.5.78a2.67 2.67 0 00-3.78 3.77l14.07 14.12H2.67a2.67 2.67 0 100 5.33H55L40.73 38.11a2.67 2.67 0 103.76 3.78l18.72-18.54a2.67 2.67 0 000-3.78z" id="aLayer_1-2" data-name="Layer 1"/></g></svg><svg viewBox="0 0 26 18" id="burger" xmlns="http://www.w3.org/2000/svg"><path d="M0 0h26v1.68H0V0zM0 8.16h26v1.68H0V8.16zM0 16.32h26V18H0v-1.68z"/></svg><svg viewBox="0 0 19 19" id="close-btn" xmlns="http://www.w3.org/2000/svg"><path d="M1.336 0l16.701 16.701-1.336 1.336-16.7-16.7L1.335 0z"/><path d="M18.038 1.336L1.337 18.037 0 16.701 16.701.001l1.337 1.335z"/></svg><svg viewBox="0 0 32 32" id="download" xmlns="http://www.w3.org/2000/svg"><path d="M31 22a1 1 0 00-1 1v7H2v-7a1 1 0 00-2 0v8a1 1 0 001 1h30a1 1 0 001-1v-8a1 1 0 00-1-1z"/><path d="M15.27 23.707c.389.385 1.04.389 1.429 0l6.999-6.9a.993.993 0 000-1.414 1.016 1.016 0 00-1.428 0l-5.275 5.2V1c0-.552-.452-1-1.01-1s-1.01.448-1.01 1v19.593l-5.275-5.2a1.016 1.016 0 00-1.428 0 .992.992 0 000 1.414l6.998 6.9z"/></svg></svg>